<svg xmlns="http://www.w3.org/2000/svg" viewBox="0 0 322.97 84.74"><defs><style>.cls-1{fill:#fff;}</style></defs><g id="Capa_2" data-name="Capa 2"><g id="Capa_1-2" data-name="Capa 1"><path class="cls-1" d="M247.55,28.67A24.66,24.66,0,0,0,236.9,26.6H224.44v.85c1.72.13,2.83.43,3.32.91s.75,1.56.75,3.25V52.16c0,1.74-.26,2.82-.77,3.25a6.88,6.88,0,0,1-3.3.91v.85h12.84a25.44,25.44,0,0,0,8.72-1.3,14.54,14.54,0,0,0,3.74-2.06A13.52,13.52,0,0,0,254,48.55,15.7,15.7,0,0,0,255.41,42Q255.41,32.39,247.55,28.67ZM245,53.31A16.74,16.74,0,0,1,236,55.46a4.79,4.79,0,0,1-2.29-.36,1.67,1.67,0,0,1-.55-1.49V30.1c0-.77.18-1.27.55-1.49a4.44,4.44,0,0,1,2.11-.34q6.25,0,10,3.07,4.41,3.58,4.42,10.7Q250.33,50,245,53.31Z"/><path class="cls-1" d="M273.59,25.94A14.56,14.56,0,0,0,263.1,30q-4.65,4.47-4.65,11.87a15.86,15.86,0,0,0,4.36,11.53,14.44,14.44,0,0,0,10.78,4.4,14.69,14.69,0,0,0,10.36-4q4.79-4.45,4.79-12t-4.63-11.85A14.57,14.57,0,0,0,273.59,25.94Zm7,26.82a8.89,8.89,0,0,1-7,3.4,8.78,8.78,0,0,1-7.05-3.49q-2.88-3.48-2.87-10.77t2.88-10.8a8.82,8.82,0,0,1,7-3.49A8.93,8.93,0,0,1,280.56,31q2.94,3.36,2.94,10.92T280.6,52.76Z"/><path class="cls-1" d="M311.19,40.81v.86a6.16,6.16,0,0,1,3.31.82q.75.66.75,3.33v7.37a1.52,1.52,0,0,1-.41,1.16,6.29,6.29,0,0,1-2,.93,12.15,12.15,0,0,1-2.14.5,15.19,15.19,0,0,1-2,.15,10.92,10.92,0,0,1-8.3-3.58q-3.36-3.6-3.36-10,0-7.74,3.37-11.11a10.74,10.74,0,0,1,7.82-3.38,9.36,9.36,0,0,1,7.11,2.89,17.75,17.75,0,0,1,2.93,5h1.06L319,26.06h-1a3.12,3.12,0,0,1-.71,1.1,2,2,0,0,1-1.41.39,21.43,21.43,0,0,1-3-.75,18.91,18.91,0,0,0-5.28-.74,15.14,15.14,0,0,0-11.92,5.07,16.11,16.11,0,0,0-4.08,11.06,14.54,14.54,0,0,0,5.12,11.69,17,17,0,0,0,11.42,3.95,23.86,23.86,0,0,0,7.66-1.35q4-1.36,4-2.17v-9.1c0-1.5.32-2.49.95-3a4.39,4.39,0,0,1,2.28-.57v-.86Z"/><path class="cls-1" d="M23.45,41.9a11.74,11.74,0,0,0-3.18-1.36,10.37,10.37,0,0,0,3.29-1.81,5.69,5.69,0,0,0,2.14-4.66c0-3.18-1.74-5.39-5.17-6.58a20.44,20.44,0,0,0-6.61-.92H.5a.5.5,0,0,0-.5.5v1.11a.51.51,0,0,0,.47.5,6,6,0,0,1,2.4.44,2.17,2.17,0,0,1,.95,2.11v21a2.17,2.17,0,0,1-1,2.14,5.65,5.65,0,0,1-2.31.41.5.5,0,0,0-.48.5v1.1a.5.5,0,0,0,.5.5h14a16.24,16.24,0,0,0,9.15-2.32,7.37,7.37,0,0,0-.17-12.7ZM11.75,30.49a1.67,1.67,0,0,1,.36-1.27,2.45,2.45,0,0,1,1.56-.33c1.52,0,2.51.47,3,1.43a8.35,8.35,0,0,1,.85,3.94c0,2.08-.42,3.53-1.23,4.31S14,39.69,11.75,39.74Zm5.79,22.56c-.72,1-2,1.47-3.91,1.47A1.68,1.68,0,0,1,12,53.84h0a2.93,2.93,0,0,1-.27-1.42V42.05a9.59,9.59,0,0,1,4.45.81c1.67.93,2.48,2.8,2.48,5.72A7.45,7.45,0,0,1,17.54,53.05Z"/><path class="cls-1" d="M56.46,46.08H55.19a.5.5,0,0,0-.47.32c-1.24,3.22-2.72,5.41-4.4,6.5A11.41,11.41,0,0,1,44,54.54a5.56,5.56,0,0,1-2.67-.39c-.34-.21-.52-.71-.52-1.48V32.14c0-2,.43-2.63.68-2.82s1.19-.58,3.25-.64a.5.5,0,0,0,.48-.5V27.07a.5.5,0,0,0-.5-.5H29.55a.5.5,0,0,0-.5.5v1.11a.51.51,0,0,0,.47.5,6,6,0,0,1,2.4.44,2.16,2.16,0,0,1,1,2.11v21a2.18,2.18,0,0,1-1,2.15,5.69,5.69,0,0,1-2.33.41.5.5,0,0,0-.48.5v1.1a.5.5,0,0,0,.5.5H54.7a.49.49,0,0,0,.49-.41L57,46.67a.48.48,0,0,0-.11-.41A.49.49,0,0,0,56.46,46.08Z"/><path class="cls-1" d="M88.06,54.82A2.08,2.08,0,0,1,86.19,54a31.62,31.62,0,0,1-2.38-4.86L74.12,26.29a.5.5,0,0,0-.46-.31H72.45a.5.5,0,0,0-.47.31L62.34,50.06a19,19,0,0,1-1.71,3.54,2.75,2.75,0,0,1-2.15,1.22.5.5,0,0,0-.46.5v1.1a.5.5,0,0,0,.5.5h8.86a.5.5,0,0,0,.5-.5v-1.1a.5.5,0,0,0-.49-.5,7.73,7.73,0,0,1-2.08-.23c-.91-.31-.91-.73-.91-.88A8.08,8.08,0,0,1,65,51.43c.17-.48.54-1.5,1.1-3h9.07l1,2.32c.23.57.42,1.05.56,1.45A4.82,4.82,0,0,1,77,53.56c0,.52-.12.84-.36.94a9.16,9.16,0,0,1-2.61.32.5.5,0,0,0-.48.5v1.1a.5.5,0,0,0,.5.5H88.08a.5.5,0,0,0,.5-.5v-1.1a.51.51,0,0,0-.52-.5Zm-21-9.14L70.47,37l3.6,8.67Z"/><path class="cls-1" d="M117.4,49.46a.49.49,0,0,0-.68,0,23.1,23.1,0,0,1-3.81,3.38,10.82,10.82,0,0,1-6,1.78c-3.44,0-5.73-1.74-7-5.31a22.83,22.83,0,0,1-1-7.51A23,23,0,0,1,100.68,32a5.88,5.88,0,0,1,5.75-3.48A8.54,8.54,0,0,1,113,31.83a22.91,22.91,0,0,1,3.13,5.11.5.5,0,0,0,.45.28h1.1a.5.5,0,0,0,.5-.5V26.57a.5.5,0,0,0-.5-.5h-1.2a.5.5,0,0,0-.5.41,2.5,2.5,0,0,1-.52,1.11,1.09,1.09,0,0,1-.92.45,25.91,25.91,0,0,1-2.94-1,16.56,16.56,0,0,0-5.66-1,15.37,15.37,0,0,0-11,4.25,15.7,15.7,0,0,0-4.76,11.84,14.89,14.89,0,0,0,5,11.74,16.26,16.26,0,0,0,11.1,3.94,14.12,14.12,0,0,0,7.91-2.35,25.62,25.62,0,0,0,4.57-4.2.49.49,0,0,0-.06-.72Z"/><path class="cls-1" d="M154.12,56.42v-1.1a.51.51,0,0,0-.45-.5,5.68,5.68,0,0,1-1.18-.2,1.48,1.48,0,0,1-.61-.5l-13-16a87.35,87.35,0,0,1,8-7.58,10.17,10.17,0,0,1,5.33-1.81.51.51,0,0,0,.46-.5V27.07a.5.5,0,0,0-.5-.5H139.65a.5.5,0,0,0-.5.5v1.11a.5.5,0,0,0,.47.5,14.4,14.4,0,0,1,2.78.33.51.51,0,0,1,.4.58,1.22,1.22,0,0,1-.19.72,11.38,11.38,0,0,1-1.21,1.32l-8.49,8.6V32.14c0-1.94.38-2.55.61-2.73a5,5,0,0,1,2.75-.73.51.51,0,0,0,.46-.5V27.07a.5.5,0,0,0-.5-.5H121.54a.5.5,0,0,0-.5.5v1.11a.5.5,0,0,0,.46.5,5.88,5.88,0,0,1,2.41.46,2.17,2.17,0,0,1,.9,2.09v21a2.18,2.18,0,0,1-1,2.14,5.58,5.58,0,0,1-2.3.41.5.5,0,0,0-.48.5v1.1a.5.5,0,0,0,.5.5h14.65a.5.5,0,0,0,.5-.5v-1.1a.5.5,0,0,0-.48-.5,5.67,5.67,0,0,1-2.3-.43,2.16,2.16,0,0,1-1-2.12V44l.56-.56L141,52.83a7.93,7.93,0,0,1,.78,1.1,1.23,1.23,0,0,1,.18.48c0,.08,0,.18-.33.25a16.19,16.19,0,0,1-2.59.16.5.5,0,0,0-.5.5v1.1a.5.5,0,0,0,.5.5h14.57A.5.5,0,0,0,154.12,56.42Z"/><path class="cls-1" d="M221.21,46.4c2.37.51,3.84-3.13,3.84-3.13s-4.23,2-5.4.39c-.39-.53-1.92-1.48-2.56-2.95-1.09-2.47-.6-2.07-1.2-4.09a13.74,13.74,0,0,1-.49-6.57c.18-1.43-.51-3.13-.64-4-.2-1.46-1.61-2.37-1.87-3.12s-1.16-1.35-1.4-2.28-1.49-1.1-1.49-1.1.22-.33-3.23-1.67a36.67,36.67,0,0,0-10-2.36c-2.52-.14-6.52,1.43-9.74,1.12-6.11-.6-9.23-3-9.23-3A6.93,6.93,0,0,0,176.35,12a19.43,19.43,0,0,1-2.72-2.88c-.62-.8-1.73-2-2.51-3s-1.8-2.94-2.8-3.61A15.68,15.68,0,0,0,162.64.12c-3.41-.43-5.13.43-5.91.88a7.24,7.24,0,0,0-1.95,2.47c-.24.51-1.18.76-2.09.82s-2.39.24-3.68.44a4.91,4.91,0,0,0-2.1.82.86.86,0,0,0,0,1.1A4.67,4.67,0,0,1,147.51,8a2.85,2.85,0,0,1,.38,1.32c-.07.53.91,1.38,1.2,2s1.15.87,2.38,1.21a9.55,9.55,0,0,0,2.32.29l2,.25a.65.65,0,0,1,.49.43c.13.38,1.31,1.07,1.6,1.65a1.82,1.82,0,0,1,.15,1.65c-.24.51-1.2.93-1.43,1.27s.34.22.72.09.67.44.09.73a1.17,1.17,0,0,0-.65.83,1.74,1.74,0,0,1,.73-.09c.36,0,.52.25.29.58s-.53.53-.4.91-1.12.22-1.12.22,1,.85,1.32,1.08.28.33.22.87a2.82,2.82,0,0,1-.72,1,15,15,0,0,1,1.9-.35.66.66,0,0,1-.58.29c-.21,0-.3.59-.35,1.11a4.17,4.17,0,0,1,.9.23l-.38.13c-.38.13-.83,1.32-.83,1.32a.87.87,0,0,0,.55-.12,3.38,3.38,0,0,1,1.06-.19,7.55,7.55,0,0,0-1.19,1,8.93,8.93,0,0,1-1,1,3.28,3.28,0,0,0,.91-.07c.56-.11.72.09.72.09l-.67,1a1.75,1.75,0,0,0,.93-.24c.58-.29.74-.09.69.27a16.49,16.49,0,0,0-.54,2.78c0,.22,1.41-1.27,1.44-1s-.54.81-.5,1.06.68.18.72.46-.31,2.47-.08,2.23c.65-.64,1.25-.59,1.29-.3s-.44.94-.41,1.18c.07.55.62.6.6.74s.35,1.9.46,1.49c.23-.88.67.64,1.15,1,.82.65-.21,1.72.12,2s.87,3.18.8,3.72-.83,3.7-.92,4.41-.79,6.24-.73,7.16a28.56,28.56,0,0,1-.7,5.52c-.29.87-1,1-1.23,1.12a5.47,5.47,0,0,0-1.38.91h0l-6.9,1.1a4.12,4.12,0,0,0-4.14,2.6,4.37,4.37,0,0,0-.09,3.5,4.42,4.42,0,0,0,2.39,2.2l27.91,11.1a.89.89,0,0,0,.36.07h.17l41.72-7.44a1,1,0,0,0,.73-.62,1,1,0,0,0-.16-1c-.06-.07-1.44-1.82.21-4.67h0l0-1.61-10.69-3.71c0-.16,0-.34,0-.55a7.19,7.19,0,0,0-.16-1.65c-.13-.38.14.11,0-.45s-.47-4.87-.4-5.4c0-.3,0-1.26.78-.51.09.09-.4-1.56-.37-1.69s1.31,1.16,1.23,1c-.39-.82-1-2-1-2.15s1.18.89.87.55a2.17,2.17,0,0,1-.66-2.19c0-.67.62.23.62.23a18,18,0,0,1-.65-2.34,4.91,4.91,0,0,1,0-.55,5,5,0,0,1,0-.55,3.37,3.37,0,0,1,.11-.81,1.29,1.29,0,0,1,.32-.59c.32-.31.2-1.19-.07-2.11A12.19,12.19,0,0,0,215,48.51s.94.21.55-.62c-.51-1.1.55.47.55.47l.55,1.17a1.91,1.91,0,0,1,.23-.86,1.72,1.72,0,0,0,.08-1.1l.94,1.1.23-.55s-.27-.85.22-.43a3.72,3.72,0,0,1,.8,1.36l-.69-2s.8,1.44,1.08,2c.47.94-.46-3,.86-.62A11,11,0,0,0,221.54,50a6.7,6.7,0,0,0-.33-1.56c-.39-.63-1.9-1.7-.86-1.57a9.53,9.53,0,0,1,2.78.8C222.25,47.22,220.36,46.22,221.21,46.4ZM179.68,57.17c0-.36-.06-.92.16-1.25s.6-.47.65-.82,0-1.63,0-1.63l.45.78c.44.78.62.8.62.8a10.84,10.84,0,0,1-.15-1.65c0-.35-.6-1-.6-1l.22-1.78.4,1.14c.14.38,1,.85,1,.85a6.83,6.83,0,0,0-.37-1.32c-.16-.2,0-1.27,0-1.27l.57,1.16.09-.71s-.48-1.88-.35-1.5,1.2.52,1.2.52a5.8,5.8,0,0,1-.55-1.34,3.35,3.35,0,0,0-.58-1.16l1.61.2a1.32,1.32,0,0,0-.67-.45c-.36,0-.29-.58-.09-.73s.58-.29.42-.49-1.24-.16-1.24-.16l.6-.47-.69-.27.4-.31-.31-.4-.2-1.29.31.4a2.67,2.67,0,0,0,.82.65,5.3,5.3,0,0,0-.39-1.14c-.29-.58-.43-1-.43-1a1.85,1.85,0,0,1,.69.27,3.86,3.86,0,0,1,.78,1l.52-1.2a4.29,4.29,0,0,1,.42,1,10.32,10.32,0,0,1,.38,1.32s.09-.72.15-1.25a6.41,6.41,0,0,1,.34-1.23,2.62,2.62,0,0,0,.42,1,24.73,24.73,0,0,1,1.17,3.38s0-.1,0-.16a9.55,9.55,0,0,1,0-1.63s.09-.71.22-.33.38,1.31.38,1.31a2.93,2.93,0,0,1,.29-.86,2.76,2.76,0,0,0,0-1.45l.47.6a7.91,7.91,0,0,1,.44.78s.31.4.54.07a10.67,10.67,0,0,0,.45-2.12s0-.18.15.2.38,3.66.62,3.15a3.53,3.53,0,0,0,0-1.63s.51.25.38-.13.33-1.22.33-1.22l.54,1.51s.11-.89.18-1.42a2.2,2.2,0,0,1,.29-.87l.9.82.44-.12c-.31,1.05.31,1.86.73,2.81s.52,3.2,1,4a6,6,0,0,1,.6,1.58,2.15,2.15,0,0,1,.36,1.37c0,.23-.4,1.87-.42,2.14s-.06,1-.08,1.18.06.65,0,.86,0,.66,0,.9.1.65.08.82a3.89,3.89,0,0,1-.08.56,9.32,9.32,0,0,1,0,2L192,59l-12.77,2a.63.63,0,0,0,.16-.3c.05-.36.34-1.23.43-1.94A10.72,10.72,0,0,0,179.68,57.17ZM152.09,69.89a4.09,4.09,0,0,1,1.25-2.63l24.51,9.82a6,6,0,0,0-1.17,3.36,4.91,4.91,0,0,0,.19,1.33l-23.48-9.34h0A3.56,3.56,0,0,1,152.09,69.89ZM166.25,63a4.55,4.55,0,0,0,.54-1.38c0-.18.45-2.12.51-2.66s.87-1.15,1.25-1.29.29-.87.34-1.22a2.65,2.65,0,0,0-.2-1.3c-.15-.2-.18-1.47,0-1.44s.9.81.9.81-.32-1.1-.65-1.33-.2-1.29-.2-1.29l.94-2.43c.24-1.44.48-2.93.46-2.74,0,.36.84.47.84.47a1.25,1.25,0,0,0-.11-.56,3.21,3.21,0,0,1,0-1.09l.45.78s-.05-1.09-.38-1.32,0-1.27,0-1.8,1.18-.76,1.54-.71a2.85,2.85,0,0,1,1.35.71,3.34,3.34,0,0,1,1,1.95,5.34,5.34,0,0,0,.68,1.71s-.27,2.14-.38,3a5.93,5.93,0,0,0-.14,2.52c.27.76-.2,4.51-.2,4.51l-.26,3.41-.32,1.52-8.13,1.3A.8.8,0,0,1,166.25,63Zm53.27,12.62-39.89,7.11a3.46,3.46,0,0,1-1-2.26,4.56,4.56,0,0,1,1.34-2.9h0l39.69-6.15A6.05,6.05,0,0,0,219.52,75.61ZM200.26,61.88c0-.49.05-.93.08-1.19.09-.71.34-2,.36-2.15s.27-1.33.38-1.78a6.15,6.15,0,0,0,0-.92c0-.1.22,2.69.4,1.94a5.41,5.41,0,0,0,.11-2.62c0-.2.49.25.47,0a2.3,2.3,0,0,0-.66-1.48c0-.18,1.48,1.32,1,.5-.25-.48-.95-1.34-.93-1.49s1,1,1,.87a8.78,8.78,0,0,1-.82-3c.15-1,.31-.84.46-1.11a4.31,4.31,0,0,0,.67-2.46,6.73,6.73,0,0,0-.45-2.32c-.15-.19,0-.34.31-.53l-.08-.14A15.52,15.52,0,0,1,200,37a.38.38,0,0,1,.34-.4.37.37,0,0,1,.41.34,14.81,14.81,0,0,0,2.46,6.72l0,.07.05,0q0,.15.09.27l.24.39a.41.41,0,0,1,0,.19l.48.88c.73,1.36,2.29,4.77,2.29,4.77a19.21,19.21,0,0,0-.11,2.34c0,1.28.46.65.7,1.58a8.28,8.28,0,0,1,0,2.9c-.09.72-.36,1.41-.49,2.48a12.22,12.22,0,0,1-1.52,4Z"/><rect class="cls-1" x="164.3" y="63.46" width="0.75" height="21.92" transform="translate(34.27 199.52) rotate(-68.13)"/><rect class="cls-1" x="180.51" y="76.67" width="37.6" height="0.75" transform="translate(-9.84 33.28) rotate(-9.31)"/></g></g></svg>